PathFileType	4	(X/Y/Z)	s07c0401.trc
DataRate	CameraRate	NumFrames	NumMarkers	Units	OrigDataRate	OrigDataStartFrame	OrigNumFrames
200	200	4	48	mm	200	1000	2000
Frame#	Time	racr			lacr			c7			jug			rlel			rdr			llel			ldr			s2			lic			ric			lasi			rasi			rpsi			lpsi			rgt			lgt			rth1			rth2			rth3			rth4			rlfc			rmfc			rsh1			rsh2			rsh3			rsh4			rlmal			rcal			rtoe			rmt5			lth1			lth2			lth4			lth3			llfc			lmfc			lsh1			lsh2			lsh3			lsh4			llmal			lcal			ltoe			lmt5			SBIKE			LBIKE			RBIKE			
		X1	Y1	Z1	X2	Y2	Z2	X3	Y3	Z3	X4	Y4	Z4	X5	Y5	Z5	X6	Y6	Z6	X7	Y7	Z7	X8	Y8	Z8	X9	Y9	Z9	X10	Y10	Z10	X11	Y11	Z11	X12	Y12	Z12	X13	Y13	Z13	X14	Y14	Z14	X15	Y15	Z15	X16	Y16	Z16	X17	Y17	Z17	X18	Y18	Z18	X19	Y19	Z19	X20	Y20	Z20	X21	Y21	Z21	X22	Y22	Z22	X23	Y23	Z23	X24	Y24	Z24	X25	Y25	Z25	X26	Y26	Z26	X27	Y27	Z27	X28	Y28	Z28	X29	Y29	Z29	X30	Y30	Z30	X31	Y31	Z31	X32	Y32	Z32	X33	Y33	Z33	X34	Y34	Z34	X35	Y35	Z35	X36	Y36	Z36	X37	Y37	Z37	X38	Y38	Z38	X39	Y39	Z39	X40	Y40	Z40	X41	Y41	Z41	X42	Y42	Z42	X43	Y43	Z43	X44	Y44	Z44	X45	Y45	Z45	X46	Y46	Z46	X47	Y47	Z47	X48	Y48	Z48	
1000	5.0000	763.705309	1360.544176	-99.524734	762.817443	1365.638833	-412.744300	761.132431	1418.212292	-253.883844	681.997712	1286.857995	-264.616628	507.752502	1134.845853	27.782692	691.346312	942.517593	-66.359707	494.985678	1147.351663	-511.038306	683.864964	940.258946	-434.983424	149.907952	1309.671799	-198.968828	288.212672	1351.459303	-362.612045	348.056699	1293.039324	-80.402375	304.794696	1268.152143	-350.725232	350.243206	1240.076820	-105.904958	196.049596	1333.439641	-152.520160	185.966471	1357.941283	-256.258289	272.347699	1170.198244	-45.015327	208.075255	1210.601909	-398.095737	340.148025	1034.199981	-62.602799	384.171222	959.920420	-79.088134	397.819840	877.262414	-81.997995	414.987353	974.574477	-101.411943	405.553087	733.590460	-111.339399	379.929411	725.246855	-213.820757	301.168706	634.936638	-77.493535	256.025461	560.360102	-88.906220	180.969819	515.240647	-78.949919	263.859354	551.060672	-129.541572	80.358905	422.440183	-72.749846	15.950235	463.297426	-103.452962	105.853280	187.005746	-128.070121	50.842124	245.468356	-54.533664	280.195784	1105.465951	-412.637240	354.322911	1058.535771	-421.738702	381.421074	1082.355252	-416.476429	395.908342	979.693248	-422.686013	500.583922	833.689823	-401.078120	496.658072	814.615992	-303.417922	417.942238	707.158935	-418.515855	391.464401	627.372263	-397.744168	325.423937	565.874087	-401.897723	395.522871	629.492761	-355.583447	243.456146	457.053501	-398.961843	167.157989	427.526762	-365.405678	450.807418	369.785172	-366.373335	367.077351	354.746938	-430.134704	-262.444566	976.643760	-237.362842	-82.512900	79.192315	-435.210011	-82.461919	79.596396	-37.687650	
1001	5.0050	763.487578	1362.267626	-99.102732	763.161164	1364.021687	-412.519992	761.128779	1418.212407	-253.970185	682.404348	1286.519184	-263.974951	508.522772	1135.570097	28.125330	691.682812	942.831553	-65.687354	494.497297	1146.217175	-511.585404	684.002553	940.256068	-434.825301	150.176960	1309.348247	-198.253671	287.761370	1350.113561	-362.738294	348.656504	1293.882532	-80.383257	294.002787	1262.698457	-338.805847	350.870618	1240.879484	-105.960992	196.416217	1333.467194	-152.071049	185.883501	1357.307685	-256.018895	274.191924	1171.274285	-44.074328	206.819214	1209.110959	-397.090898	343.863582	1036.306325	-62.368304	388.689565	962.645205	-79.046073	403.306826	880.125606	-82.563516	419.567869	977.765393	-101.081813	411.798800	736.455104	-112.413910	385.701545	728.262224	-214.714975	306.741069	639.008695	-78.119894	259.856562	565.535041	-89.596133	183.779342	522.002967	-79.427840	267.272864	556.035331	-130.270595	81.494715	431.531804	-72.559543	18.106876	473.710791	-103.226171	102.770708	195.757945	-128.126532	48.748139	255.177909	-54.459874	277.066401	1102.797638	-412.047946	350.267192	1054.408467	-421.627057	377.901670	1077.786329	-416.545058	390.466518	974.918680	-422.358996	493.438336	828.234230	-401.649545	489.904725	808.629895	-303.994162	413.346957	700.573358	-418.840618	388.646793	620.038390	-398.209999	324.078286	557.169997	-402.343103	392.812667	622.122983	-355.953103	244.552801	446.602579	-399.401602	168.527525	415.843844	-365.325694	452.295112	359.418353	-366.394483	368.629987	343.884715	-430.074458	-262.486537	976.603665	-237.325625	-82.510250	79.190588	-435.210307	-82.461651	79.587997	-37.672988	
1002	5.0100	763.322884	1364.024350	-98.698088	763.445300	1362.612847	-412.290231	761.064018	1418.453529	-254.125959	683.074499	1286.230048	-263.150516	509.292959	1136.355140	28.517678	692.326761	943.108340	-64.678928	494.336533	1145.436801	-512.451791	684.217655	940.296751	-434.730225	150.403524	1308.782214	-197.396685	284.287939	1344.423011	-350.371071	349.201681	1294.456669	-80.330288	293.601728	1261.435390	-338.953165	351.424709	1241.477351	-105.976521	196.712386	1333.323285	-151.690611	185.848677	1356.468239	-255.771167	275.833963	1172.059366	-43.115531	205.664312	1207.445396	-396.018077	347.031651	1038.112702	-61.819831	392.804399	965.071838	-78.856727	408.200172	882.596518	-82.762750	423.611131	980.518858	-100.508360	418.419898	738.982716	-113.029207	391.314272	731.212519	-215.438919	312.038784	643.250908	-78.569968	263.389411	571.170928	-90.003588	187.754335	528.957557	-78.632718	270.352971	561.312516	-130.812511	82.084967	441.132426	-72.436649	19.408005	484.169200	-103.195222	100.869202	205.399276	-127.879883	47.124518	265.309892	-54.414489	274.110010	1099.932597	-411.429141	346.280013	1050.149496	-421.889862	374.372563	1073.209123	-416.893353	385.004250	969.865265	-421.950086	486.368937	822.310977	-401.738712	483.393996	802.683946	-304.339291	408.086319	693.800932	-419.130737	385.356532	612.738345	-398.821301	321.997996	548.425740	-402.568828	391.102704	613.974857	-357.065613	243.900037	436.979961	-402.110946	169.235656	404.607513	-364.952970	453.319579	348.602218	-366.150166	369.618873	332.927262	-429.884368	-262.554672	976.541268	-237.290836	-82.502760	79.168774	-435.205103	-82.487319	79.567837	-37.670318	
1003	5.0150	763.300324	1365.834530	-98.221046	763.691535	1361.573560	-412.068026	760.968703	1418.875306	-254.086812	683.905438	1286.014095	-262.197444	509.880982	1137.190920	28.771005	693.016141	943.523433	-63.658232	494.186304	1144.657331	-513.288767	684.494177	940.500202	-434.917721	150.694252	1308.076461	-196.803847	284.075925	1342.650359	-350.745005	349.723814	1294.615716	-80.453678	303.717311	1264.318116	-351.194322	351.748454	1241.944287	-105.950434	197.047891	1332.928354	-151.412634	185.938393	1355.405927	-255.165173	277.166432	1172.699323	-42.203850	204.695373	1205.579879	-394.982136	349.770971	1039.289949	-61.098044	396.543465	967.221065	-78.532889	412.836534	884.608143	-82.558100	427.042754	982.831188	-99.785324	424.720014	741.506888	-113.744612	396.784661	734.061793	-216.047453	317.068149	647.776850	-79.022356	267.379041	576.819315	-90.106526	188.916385	536.765433	-79.670992	273.180555	566.900754	-131.285375	82.344567	451.257369	-72.362819	20.125610	494.797166	-103.130378	100.059002	215.652425	-127.734078	46.212659	275.929231	-54.244787	271.294909	1096.817458	-410.759069	342.251536	1045.717006	-421.485701	370.939737	1068.064875	-417.085159	379.490161	964.530289	-421.382823	479.119078	816.112634	-401.657105	476.516473	795.983220	-304.447574	402.021187	687.050009	-419.406724	381.326532	605.251558	-399.582839	319.175077	539.636480	-402.447943	388.109567	605.940274	-357.815552	244.135844	426.332043	-401.710311	169.326192	393.669014	-364.741145	453.760384	337.559196	-365.871093	370.134964	322.243218	-429.804109	-262.584997	976.509069	-237.196395	-82.535807	79.133404	-435.189857	-82.471450	79.481606	-37.659161	
